<svg width="307" height="207" viewBox="0 0 307 207" fill="none" xmlns="http://www.w3.org/2000/svg">
<path fill-rule="evenodd" clip-rule="evenodd" d="M305.419 -4.19973C299.712 19.8363 255.414 31.8575 232.534 51.4677C216.935 64.8378 204.47 79.1821 191.279 93.6298C176.917 109.361 175.265 133.461 150.622 141.187C124.186 149.476 94.0677 122.309 68.6313 132.086C28.743 147.418 26.5056 193.907 -15.8742 205.183C-47.8253 213.683 -75.38 188.503 -103.798 177.962C-132.658 167.256 -175.683 163.549 -185.859 142.128C-197.435 117.76 -159.581 91.4914 -157.339 65.2567C-155.799 47.2404 -173.757 31.9492 -174.913 14.0592C-176.152 -5.09273 -187.228 -30.6164 -164.355 -43.2513C-135.099 -59.4121 -81.6265 -32.6904 -56.1153 -51.5644C-27.3177 -72.8697 -77.7347 -119.637 -41.2561 -134.324C-8.01749 -147.705 9.80702 -90.3399 47.2381 -93.1741C88.3457 -96.2866 104.516 -152.966 144.457 -148.385C180.314 -144.273 151.482 -96.8586 174.557 -78.5725C193.822 -63.305 235.805 -70.9021 258.522 -57.9917C282.18 -44.5458 310.566 -25.8799 305.419 -4.19973Z" fill="#9DE8F2"/>
</svg>
