<svg width="203" height="203" viewBox="0 0 203 203" fill="none" xmlns="http://www.w3.org/2000/svg">
<path d="M80.8219 176.989H117.732H153.841C167.396 176.989 179.32 168.018 183.094 154.98L185.507 146.644C188.671 135.714 182.727 124.218 171.987 120.498C157.156 115.361 152.75 96.4878 163.769 85.2979L164.874 84.1759C175.852 73.0283 172.288 54.3254 157.982 48.0101L116.352 29.6325C103.827 24.103 89.4368 24.7754 77.4797 31.4487L70.6824 35.2423C56.6341 43.0827 49.9764 59.6954 54.7144 75.0866C58.4367 87.1782 55.1695 100.34 46.2267 109.278L45.6674 109.837C31.2166 124.281 31.9433 147.944 47.2532 161.471L52.8157 166.385C60.5495 173.219 70.5084 176.989 80.8219 176.989Z" fill="#E7E8FF"/>
<path d="M194.614 158.264C194.729 167.014 188.779 174.402 185.757 176.989H181.127C184.569 165.314 190.261 159.509 193.45 157.577C193.981 157.256 194.605 157.642 194.614 158.264Z" fill="#244D5E"/>
<path d="M195.103 129.555C199.847 147.446 187.889 168.636 182.747 176.525H172.328C176.803 142.767 184.306 134.562 193.792 129.018C194.301 128.721 194.951 128.983 195.103 129.555Z" fill="white"/>
<path fill-rule="evenodd" clip-rule="evenodd" d="M194.025 129.42C194.275 129.273 194.583 129.405 194.655 129.674C196.992 138.488 195.221 148.153 192.196 156.635C189.226 164.959 185.068 172.089 182.496 176.06H172.857C175.084 159.51 178.045 149.227 181.592 142.406C185.163 135.537 189.339 132.159 194.025 129.42ZM195.55 129.435C195.318 128.562 194.327 128.168 193.559 128.617C188.759 131.422 184.441 134.917 180.77 141.976C177.113 149.011 174.109 159.564 171.869 176.463L171.799 176.989H182.997L183.134 176.779C185.717 172.817 190.012 165.514 193.068 156.948C196.121 148.389 197.957 138.513 195.55 129.435Z" fill="#244D5E"/>
<path d="M178.303 140.562C182.4 155.555 177.71 171.137 174.643 176.989H167.002C165.284 158.716 172.269 145.428 176.862 140.204C177.315 139.689 178.122 139.899 178.303 140.562Z" fill="#244D5E"/>
<path fill-rule="evenodd" clip-rule="evenodd" d="M188.617 142.286L191.11 135.261L191.982 135.573L186.273 151.662L190.024 150.533L190.29 151.423L185.888 152.748L180.695 167.381L185.369 165.638L185.692 166.509L180.29 168.524L177.396 176.68L176.523 176.369L182.401 159.803L180.228 153.688L181.1 153.376L182.893 158.419L188.092 143.766L186.472 138.337L187.359 138.071L188.617 142.286Z" fill="#244D5E"/>
<path fill-rule="evenodd" clip-rule="evenodd" d="M174.395 152.534L175.576 146.017L176.487 146.184L174.09 159.412L177.205 157.766L177.637 158.588L173.879 160.573L171.823 171.919L174.399 169.889L174.971 170.619L171.573 173.297L170.931 176.84L170.019 176.674L171.667 167.586L168.95 164.034L169.685 163.468L171.89 166.353L174.188 153.678L171.987 151.293L172.667 150.662L174.395 152.534Z" fill="white"/>
<path d="M38.2624 51.1799L36.7835 48.9474C36.5201 48.5499 35.9017 48.724 35.8844 49.2006L35.7897 51.8139C35.7839 51.972 35.7023 52.1177 35.5704 52.205L33.1846 53.7855C32.8004 54.04 32.9475 54.6359 33.4061 54.6824L36.284 54.974C36.4239 54.9881 36.551 55.0617 36.633 55.1759L38.4861 57.7576C38.7613 58.141 39.3662 57.9526 39.375 57.4807L39.4302 54.5017C39.4329 54.3566 39.4997 54.2201 39.6127 54.129L42.1358 52.0942C42.5069 51.7949 42.2761 51.1957 41.8001 51.2227L38.6991 51.3987C38.525 51.4086 38.3587 51.3253 38.2624 51.1799Z" fill="#244D5E"/>
<path d="M21.1987 79.4806L20.4577 79.0348C20.049 78.7889 19.5654 79.2118 19.7546 79.6496L20.0874 80.4201C20.1502 80.5653 20.139 80.7319 20.0575 80.8675L19.5168 81.7661C19.2792 82.161 19.6681 82.6359 20.1021 82.4808L21.1188 82.1177C21.2512 82.0703 21.3976 82.0821 21.5207 82.1501L22.578 82.7334C22.9913 82.9614 23.4566 82.5313 23.2617 82.1015L22.8134 81.1122C22.7534 80.98 22.7552 80.828 22.818 80.6972L23.3476 79.5953C23.5541 79.1656 23.0882 78.7237 22.6701 78.9526L21.687 79.4906C21.5341 79.5743 21.3481 79.5705 21.1987 79.4806Z" fill="#244D5E"/>
<path d="M76.9251 102.117L74.3361 105.411C74.1785 105.612 73.9216 105.708 73.67 105.661L70.4701 105.066C69.7816 104.938 69.3663 105.797 69.8976 106.251L72.4125 108.396C72.5962 108.553 72.6829 108.794 72.6407 109.031L72.0097 112.57C71.8911 113.235 72.7155 113.646 73.1823 113.155L75.7657 110.436C75.9174 110.276 76.1373 110.199 76.3563 110.229L79.3461 110.633C80.0196 110.724 80.401 109.891 79.8889 109.447L77.6654 107.519C77.4868 107.364 77.4015 107.129 77.4398 106.896L78.1409 102.646C78.2556 101.951 77.3615 101.562 76.9251 102.117Z" fill="white"/>
<path d="M75.8077 76.8681C75.8077 79.6103 73.5698 81.8333 70.8091 81.8333C68.0485 81.8333 65.8105 79.6103 65.8105 76.8681C65.8105 74.1258 68.0485 71.9028 70.8091 71.9028C73.5698 71.9028 75.8077 74.1258 75.8077 76.8681Z" fill="white"/>
<path fill-rule="evenodd" clip-rule="evenodd" d="M70.8082 72.2491C68.2401 72.2491 66.1583 74.317 66.1583 76.868C66.1583 79.4189 68.2401 81.4869 70.8082 81.4869C73.3763 81.4869 75.4581 79.4189 75.4581 76.868C75.4581 74.317 73.3763 72.2491 70.8082 72.2491ZM65.4609 76.868C65.4609 73.9345 67.855 71.5564 70.8082 71.5564C73.7614 71.5564 76.1554 73.9345 76.1554 76.868C76.1554 79.8015 73.7614 82.1796 70.8082 82.1796C67.855 82.1796 65.4609 79.8015 65.4609 76.868Z" fill="#244D5E"/>
<path d="M57.6792 77.3907H84.7255C85.1158 77.3907 85.3827 76.9992 85.2377 76.6392L84.1308 73.8902C83.324 71.8868 82.9095 69.7489 82.9095 67.5912V63.4096C82.9095 56.9871 77.6681 51.7805 71.2023 51.7805C64.7366 51.7805 59.4951 56.9871 59.4951 63.4097V67.5912C59.4951 69.7489 59.0807 71.8868 58.2739 73.8902L57.167 76.6392C57.022 76.9992 57.2889 77.3907 57.6792 77.3907Z" fill="#244D5E"/>
<path d="M85.8038 56.2231C85.8038 59.6869 82.9769 62.495 79.4898 62.495C76.0027 62.495 73.1758 59.6869 73.1758 56.2231C73.1758 52.7592 76.0027 49.9512 79.4898 49.9512C82.9769 49.9512 85.8038 52.7592 85.8038 56.2231Z" fill="white"/>
<path fill-rule="evenodd" clip-rule="evenodd" d="M79.4908 50.2974C76.1962 50.2974 73.5255 52.9504 73.5255 56.223C73.5255 59.4956 76.1962 62.1485 79.4908 62.1485C82.7854 62.1485 85.4561 59.4956 85.4561 56.223C85.4561 52.9504 82.7854 50.2974 79.4908 50.2974ZM72.8281 56.223C72.8281 52.5678 75.8111 49.6047 79.4908 49.6047C83.1705 49.6047 86.1535 52.5678 86.1535 56.223C86.1535 59.8781 83.1705 62.8412 79.4908 62.8412C75.8111 62.8412 72.8281 59.8781 72.8281 56.223Z" fill="#244D5E"/>
<path fill-rule="evenodd" clip-rule="evenodd" d="M78.5371 56.6842C78.6733 56.549 78.6733 56.3297 78.5371 56.1944L76.4439 54.1152C76.3078 53.9799 76.3078 53.7607 76.4439 53.6254L76.8746 53.1976C77.0107 53.0624 77.2315 53.0624 77.3676 53.1976L79.4608 55.2769C79.597 55.4121 79.8178 55.4121 79.9539 55.2769L82.0471 53.1976C82.1833 53.0624 82.404 53.0624 82.5402 53.1976L82.9708 53.6254C83.107 53.7607 83.107 53.9799 82.9708 54.1152L80.8776 56.1944C80.7415 56.3297 80.7415 56.549 80.8776 56.6842L82.9708 58.7635C83.107 58.8987 83.107 59.118 82.9708 59.2533L82.5402 59.681C82.404 59.8163 82.1833 59.8163 82.0471 59.681L79.9539 57.6018C79.8178 57.4665 79.597 57.4665 79.4608 57.6018L77.3676 59.681C77.2315 59.8163 77.0107 59.8163 76.8746 59.681L76.4439 59.2533C76.3078 59.118 76.3078 58.8987 76.4439 58.7635L78.5371 56.6842Z" fill="#E7E8FF"/>
<path d="M94.1426 41.1308C94.1426 37.8801 96.7778 35.2449 100.029 35.2449H166.245C169.496 35.2449 172.131 37.8801 172.131 41.1308V170.713C172.131 173.964 169.496 176.599 166.245 176.599H100.029C96.7778 176.599 94.1426 173.964 94.1426 170.713V41.1308Z" fill="white"/>
<path fill-rule="evenodd" clip-rule="evenodd" d="M93.6523 41.1308C93.6523 37.6092 96.5072 34.7544 100.029 34.7544H166.245C169.767 34.7544 172.622 37.6092 172.622 41.1308V170.713C172.622 174.235 169.767 177.09 166.245 177.09H100.029C96.5072 177.09 93.6523 174.235 93.6523 170.713V41.1308ZM100.029 35.7354C97.049 35.7354 94.6333 38.151 94.6333 41.1308V170.713C94.6333 173.693 97.049 176.109 100.029 176.109H166.245C169.225 176.109 171.641 173.693 171.641 170.713V41.1308C171.641 38.151 169.225 35.7354 166.245 35.7354H100.029Z" fill="#244D5E"/>
<path d="M102.48 128.921C102.48 132.713 105.555 135.788 109.347 135.788C110.657 135.788 111.881 135.421 112.923 134.784L114.917 135.492C115.28 135.621 115.643 135.3 115.56 134.924L115.073 132.714C115.794 131.627 116.214 130.323 116.214 128.921C116.214 125.128 113.14 122.054 109.347 122.054C105.555 122.054 102.48 125.128 102.48 128.921Z" fill="white"/>
<path fill-rule="evenodd" clip-rule="evenodd" d="M109.348 122.544C105.826 122.544 102.971 125.399 102.971 128.921C102.971 132.442 105.826 135.297 109.348 135.297C110.565 135.297 111.701 134.957 112.667 134.366L112.867 134.244L115.082 135.03L114.549 132.616L114.664 132.442C115.334 131.433 115.724 130.223 115.724 128.921C115.724 125.399 112.869 122.544 109.348 122.544ZM101.99 128.921C101.99 124.857 105.284 121.563 109.348 121.563C113.411 121.563 116.705 124.857 116.705 128.921C116.705 130.347 116.299 131.679 115.596 132.807L116.04 134.818C116.206 135.57 115.48 136.212 114.754 135.954L112.975 135.323C111.904 135.931 110.666 136.278 109.348 136.278C105.284 136.278 101.99 132.984 101.99 128.921Z" fill="#244D5E"/>
<path d="M112.926 126.686C113.202 128.067 112.132 129.851 111.562 130.57C110.576 131.814 109.196 132.898 108.29 132.907C105.572 132.932 105.722 131.284 105.884 131.035C106.046 130.787 107.105 129.541 107.936 130.275C108.766 131.008 109.503 130.589 110.401 129.675C111.298 128.76 111.126 128.021 110.38 127.451C109.633 126.882 110.527 125.638 110.934 125.14C111.341 124.642 112.58 124.96 112.926 126.686Z" fill="#244D5E"/>
<path d="M117.616 39.9596L115.102 35.2449H151.171L148.213 40.1749C147.327 41.6523 145.73 42.5563 144.007 42.5563H121.944C120.133 42.5563 118.469 41.5579 117.616 39.9596Z" fill="#244D5E"/>
<path d="M171.174 38.1693H94.6016C97.1362 35.6347 99.5571 35.1635 100.451 35.2448H165.325C168.445 35.2448 170.525 37.1945 171.174 38.1693Z" fill="#244D5E"/>
<path d="M171.138 173.827H95.1367C97.7708 176.403 99.2931 176.882 100.222 176.799H166.053C169.295 176.799 170.463 174.818 171.138 173.827Z" fill="#244D5E"/>
<path d="M116.705 56.3277C116.705 55.515 117.364 54.8562 118.177 54.8562H147.116C147.928 54.8562 148.587 55.515 148.587 56.3277C148.587 57.1404 147.928 57.7992 147.116 57.7992H118.177C117.364 57.7992 116.705 57.1404 116.705 56.3277Z" fill="#244D5E"/>
<path d="M121.609 84.0404C121.609 83.6341 121.939 83.3047 122.345 83.3047H149.322C149.729 83.3047 150.058 83.6341 150.058 84.0404C150.058 84.4468 149.729 84.7762 149.322 84.7762H122.345C121.939 84.7762 121.609 84.4468 121.609 84.0404Z" fill="#E7E8FF"/>
<path d="M121.609 106.603C121.609 106.197 121.939 105.867 122.345 105.867H149.322C149.729 105.867 150.058 106.197 150.058 106.603C150.058 107.01 149.729 107.339 149.322 107.339H122.345C121.939 107.339 121.609 107.01 121.609 106.603Z" fill="#E7E8FF"/>
<path d="M121.609 129.166C121.609 128.76 121.939 128.43 122.345 128.43H149.322C149.729 128.43 150.058 128.76 150.058 129.166C150.058 129.572 149.729 129.902 149.322 129.902H122.345C121.939 129.902 121.609 129.572 121.609 129.166Z" fill="#E7E8FF"/>
<path d="M121.609 151.729C121.609 151.322 121.939 150.993 122.345 150.993H149.322C149.729 150.993 150.058 151.322 150.058 151.729C150.058 152.135 149.729 152.464 149.322 152.464H122.345C121.939 152.464 121.609 152.135 121.609 151.729Z" fill="#E7E8FF"/>
<path d="M99.5371 67.9721C99.5371 67.5657 99.8665 67.2363 100.273 67.2363H165.999C166.405 67.2363 166.735 67.5657 166.735 67.9721C166.735 68.3784 166.405 68.7078 165.999 68.7078H100.273C99.8665 68.7078 99.5371 68.3784 99.5371 67.9721Z" fill="#E7E8FF"/>
<path d="M99.5371 167.052C99.5371 166.646 99.8665 166.316 100.273 166.316H165.999C166.405 166.316 166.735 166.646 166.735 167.052C166.735 167.458 166.405 167.788 165.999 167.788H100.273C99.8665 167.788 99.5371 167.458 99.5371 167.052Z" fill="#E7E8FF"/>
<path fill-rule="evenodd" clip-rule="evenodd" d="M167.348 42.3752V46.3872H166.367V42.3752H167.348Z" fill="#244D5E"/>
<path fill-rule="evenodd" clip-rule="evenodd" d="M164.842 42.8767V46.3872H163.861V42.8767H164.842Z" fill="#244D5E"/>
<path fill-rule="evenodd" clip-rule="evenodd" d="M162.335 43.8796V46.3871H161.354V43.8796H162.335Z" fill="#244D5E"/>
<path fill-rule="evenodd" clip-rule="evenodd" d="M159.827 44.8828V46.3873H158.846V44.8828H159.827Z" fill="#244D5E"/>
<path d="M156.436 104.887C156.436 104.074 157.094 103.415 157.907 103.415H165.264C166.077 103.415 166.736 104.074 166.736 104.887V107.829C166.736 108.642 166.077 109.301 165.264 109.301H157.907C157.094 109.301 156.436 108.642 156.436 107.829V104.887Z" fill="white"/>
<path fill-rule="evenodd" clip-rule="evenodd" d="M155.945 104.887C155.945 103.803 156.824 102.925 157.907 102.925H165.265C166.348 102.925 167.227 103.803 167.227 104.887V107.829C167.227 108.913 166.348 109.791 165.265 109.791H157.907C156.824 109.791 155.945 108.913 155.945 107.829V104.887ZM157.907 103.906C157.366 103.906 156.926 104.345 156.926 104.887V107.829C156.926 108.371 157.366 108.81 157.907 108.81H165.265C165.806 108.81 166.246 108.371 166.246 107.829V104.887C166.246 104.345 165.806 103.906 165.265 103.906H157.907Z" fill="#244D5E"/>
<path d="M162.322 104.887C162.322 104.074 162.981 103.415 163.794 103.415H165.265C166.078 103.415 166.737 104.074 166.737 104.887V107.829C166.737 108.642 166.078 109.301 165.265 109.301H163.794C162.981 109.301 162.322 108.642 162.322 107.829V104.887Z" fill="#E7E8FF"/>
<path fill-rule="evenodd" clip-rule="evenodd" d="M161.832 104.887C161.832 103.803 162.71 102.925 163.794 102.925H165.265C166.349 102.925 167.227 103.803 167.227 104.887V107.829C167.227 108.913 166.349 109.791 165.265 109.791H163.794C162.71 109.791 161.832 108.913 161.832 107.829V104.887ZM163.794 103.906C163.252 103.906 162.813 104.345 162.813 104.887V107.829C162.813 108.371 163.252 108.81 163.794 108.81H165.265C165.807 108.81 166.246 108.371 166.246 107.829V104.887C166.246 104.345 165.807 103.906 165.265 103.906H163.794Z" fill="#244D5E"/>
<path d="M156.436 127.449C156.436 126.637 157.094 125.978 157.907 125.978H165.264C166.077 125.978 166.736 126.637 166.736 127.449V130.392C166.736 131.205 166.077 131.864 165.264 131.864H157.907C157.094 131.864 156.436 131.205 156.436 130.392V127.449Z" fill="white"/>
<path fill-rule="evenodd" clip-rule="evenodd" d="M155.945 127.449C155.945 126.366 156.824 125.487 157.907 125.487H165.265C166.348 125.487 167.227 126.366 167.227 127.449V130.392C167.227 131.476 166.348 132.354 165.265 132.354H157.907C156.824 132.354 155.945 131.476 155.945 130.392V127.449ZM157.907 126.468C157.366 126.468 156.926 126.907 156.926 127.449V130.392C156.926 130.934 157.366 131.373 157.907 131.373H165.265C165.806 131.373 166.246 130.934 166.246 130.392V127.449C166.246 126.907 165.806 126.468 165.265 126.468H157.907Z" fill="#244D5E"/>
<path d="M156.436 127.449C156.436 126.637 157.094 125.978 157.907 125.978H159.379C160.191 125.978 160.85 126.637 160.85 127.449V130.392C160.85 131.205 160.191 131.864 159.379 131.864H157.907C157.094 131.864 156.436 131.205 156.436 130.392V127.449Z" fill="#244D5E"/>
<path fill-rule="evenodd" clip-rule="evenodd" d="M155.945 127.449C155.945 126.366 156.824 125.487 157.907 125.487H159.379C160.462 125.487 161.341 126.366 161.341 127.449V130.392C161.341 131.476 160.462 132.354 159.379 132.354H157.907C156.824 132.354 155.945 131.476 155.945 130.392V127.449ZM157.907 126.468C157.366 126.468 156.926 126.907 156.926 127.449V130.392C156.926 130.934 157.366 131.373 157.907 131.373H159.379C159.921 131.373 160.36 130.934 160.36 130.392V127.449C160.36 126.907 159.921 126.468 159.379 126.468H157.907Z" fill="#244D5E"/>
<path d="M156.436 150.502C156.436 149.69 157.094 149.031 157.907 149.031H165.264C166.077 149.031 166.736 149.69 166.736 150.502V153.445C166.736 154.258 166.077 154.917 165.264 154.917H157.907C157.094 154.917 156.436 154.258 156.436 153.445V150.502Z" fill="white"/>
<path fill-rule="evenodd" clip-rule="evenodd" d="M155.945 150.503C155.945 149.419 156.824 148.541 157.907 148.541H165.265C166.348 148.541 167.227 149.419 167.227 150.503V153.445C167.227 154.529 166.348 155.407 165.265 155.407H157.907C156.824 155.407 155.945 154.529 155.945 153.445V150.503ZM157.907 149.522C157.366 149.522 156.926 149.961 156.926 150.503V153.445C156.926 153.987 157.366 154.426 157.907 154.426H165.265C165.806 154.426 166.246 153.987 166.246 153.445V150.503C166.246 149.961 165.806 149.522 165.265 149.522H157.907Z" fill="#244D5E"/>
<path d="M156.436 150.502C156.436 149.69 157.094 149.031 157.907 149.031H159.379C160.191 149.031 160.85 149.69 160.85 150.502V153.445C160.85 154.258 160.191 154.917 159.379 154.917H157.907C157.094 154.917 156.436 154.258 156.436 153.445V150.502Z" fill="#244D5E"/>
<path fill-rule="evenodd" clip-rule="evenodd" d="M155.945 150.503C155.945 149.419 156.824 148.541 157.907 148.541H159.379C160.462 148.541 161.341 149.419 161.341 150.503V153.445C161.341 154.529 160.462 155.407 159.379 155.407H157.907C156.824 155.407 155.945 154.529 155.945 153.445V150.503ZM157.907 149.522C157.366 149.522 156.926 149.961 156.926 150.503V153.445C156.926 153.987 157.366 154.426 157.907 154.426H159.379C159.921 154.426 160.36 153.987 160.36 153.445V150.503C160.36 149.961 159.921 149.522 159.379 149.522H157.907Z" fill="#244D5E"/>
<path d="M156.436 82.8143C156.436 82.0016 157.094 81.3428 157.907 81.3428H165.264C166.077 81.3428 166.736 82.0016 166.736 82.8143V85.7572C166.736 86.5699 166.077 87.2287 165.264 87.2287H157.907C157.094 87.2287 156.436 86.5699 156.436 85.7572V82.8143Z" fill="white"/>
<path fill-rule="evenodd" clip-rule="evenodd" d="M155.945 82.8143C155.945 81.7307 156.824 80.8523 157.907 80.8523H165.265C166.348 80.8523 167.227 81.7307 167.227 82.8143V85.7572C167.227 86.8408 166.348 87.7192 165.265 87.7192H157.907C156.824 87.7192 155.945 86.8408 155.945 85.7572V82.8143ZM157.907 81.8333C157.366 81.8333 156.926 82.2725 156.926 82.8143V85.7572C156.926 86.299 157.366 86.7382 157.907 86.7382H165.265C165.806 86.7382 166.246 86.299 166.246 85.7572V82.8143C166.246 82.2725 165.806 81.8333 165.265 81.8333H157.907Z" fill="#244D5E"/>
<path d="M156.436 82.8143C156.436 82.0016 157.094 81.3428 157.907 81.3428H159.379C160.191 81.3428 160.85 82.0016 160.85 82.8143V85.7572C160.85 86.5699 160.191 87.2287 159.379 87.2287H157.907C157.094 87.2287 156.436 86.5699 156.436 85.7572V82.8143Z" fill="#244D5E"/>
<path fill-rule="evenodd" clip-rule="evenodd" d="M155.945 82.8143C155.945 81.7307 156.824 80.8523 157.907 80.8523H159.379C160.462 80.8523 161.341 81.7307 161.341 82.8143V85.7572C161.341 86.8408 160.462 87.7192 159.379 87.7192H157.907C156.824 87.7192 155.945 86.8408 155.945 85.7572V82.8143ZM157.907 81.8333C157.366 81.8333 156.926 82.2725 156.926 82.8143V85.7572C156.926 86.299 157.366 86.7382 157.907 86.7382H159.379C159.921 86.7382 160.36 86.299 160.36 85.7572V82.8143C160.36 82.2725 159.921 81.8333 159.379 81.8333H157.907Z" fill="#244D5E"/>
<path d="M101.99 103.415C101.99 102.602 102.649 101.944 103.462 101.944H114.743C115.556 101.944 116.215 102.602 116.215 103.415V109.792C116.215 110.604 115.556 111.263 114.743 111.263H103.462C102.649 111.263 101.99 110.604 101.99 109.792V103.415Z" fill="white"/>
<path fill-rule="evenodd" clip-rule="evenodd" d="M101.5 103.415C101.5 102.332 102.378 101.453 103.462 101.453H114.743C115.827 101.453 116.705 102.332 116.705 103.415V109.792C116.705 110.875 115.827 111.754 114.743 111.754H103.462C102.378 111.754 101.5 110.875 101.5 109.792V103.415ZM103.462 102.434C102.92 102.434 102.481 102.873 102.481 103.415V109.792C102.481 110.333 102.92 110.773 103.462 110.773H114.743C115.285 110.773 115.724 110.333 115.724 109.792V103.415C115.724 102.873 115.285 102.434 114.743 102.434H103.462Z" fill="#244D5E"/>
<path fill-rule="evenodd" clip-rule="evenodd" d="M107.608 106.603L104.633 104.293L105.234 103.518L109.103 106.522L112.971 103.518L113.573 104.293L110.573 106.622L113.258 108.929L112.619 109.673L109.782 107.236L109.704 107.297C109.35 107.571 108.855 107.571 108.501 107.297L108.408 107.224L105.234 109.688L104.633 108.914L107.608 106.603Z" fill="#244D5E"/>
<path fill-rule="evenodd" clip-rule="evenodd" d="M109.103 77.4187C105.446 77.4187 102.481 80.3834 102.481 84.0404C102.481 87.6975 105.446 90.6621 109.103 90.6621C112.76 90.6621 115.724 87.6975 115.724 84.0404C115.724 80.3834 112.76 77.4187 109.103 77.4187ZM101.5 84.0404C101.5 79.8416 104.904 76.4377 109.103 76.4377C113.301 76.4377 116.705 79.8416 116.705 84.0404C116.705 88.2392 113.301 91.6431 109.103 91.6431C104.904 91.6431 101.5 88.2392 101.5 84.0404Z" fill="#244D5E"/>
<path d="M112.109 83.5235L108.119 81.2664C107.792 81.0815 107.387 81.3177 107.387 81.6934V86.7718C107.387 87.1696 107.836 87.402 108.16 87.1723L112.151 84.3509C112.444 84.1433 112.422 83.7006 112.109 83.5235Z" fill="#244D5E"/>
<path d="M103.461 148.05C103.461 147.237 104.12 146.578 104.932 146.578H113.271C114.083 146.578 114.742 147.237 114.742 148.05V156.388C114.742 157.201 114.083 157.86 113.271 157.86H104.932C104.12 157.86 103.461 157.201 103.461 156.388V148.05Z" fill="white"/>
<path fill-rule="evenodd" clip-rule="evenodd" d="M102.971 148.05C102.971 146.966 103.849 146.088 104.933 146.088H113.271C114.355 146.088 115.233 146.966 115.233 148.05V156.388C115.233 157.472 114.355 158.35 113.271 158.35H104.933C103.849 158.35 102.971 157.472 102.971 156.388V148.05ZM104.933 147.069C104.391 147.069 103.952 147.508 103.952 148.05V156.388C103.952 156.93 104.391 157.369 104.933 157.369H113.271C113.813 157.369 114.252 156.93 114.252 156.388V148.05C114.252 147.508 113.813 147.069 113.271 147.069H104.933Z" fill="#244D5E"/>
<path d="M111.8 152.219C111.8 153.709 110.592 154.917 109.102 154.917C107.612 154.917 106.404 153.709 106.404 152.219C106.404 150.729 107.612 149.521 109.102 149.521C110.592 149.521 111.8 150.729 111.8 152.219Z" fill="#244D5E"/>
<path d="M113.27 148.786C113.27 149.192 112.941 149.521 112.535 149.521C112.128 149.521 111.799 149.192 111.799 148.786C111.799 148.379 112.128 148.05 112.535 148.05C112.941 148.05 113.27 148.379 113.27 148.786Z" fill="#244D5E"/>
<path d="M37.9989 116.168L37.0179 121.318L37.9989 126.714C40.5331 127.041 45.6997 127.695 46.0921 127.695C46.4845 127.695 49.362 125.242 50.7518 124.016L49.2803 116.168C53.4004 114.795 54.7575 108.729 54.921 105.868C55.902 94.0958 48.054 92.6243 46.5826 92.6243C45.1111 92.6243 35.7917 92.6243 34.5655 102.434C33.5845 110.282 36.4457 114.86 37.9989 116.168Z" fill="white"/>
<path fill-rule="evenodd" clip-rule="evenodd" d="M40.6871 94.2962C38.1552 95.4602 35.6419 97.7782 35.0523 102.495C34.0879 110.21 36.9119 114.611 38.315 115.793L38.5346 115.978L37.517 121.32L38.4175 126.273C39.6711 126.434 41.401 126.654 42.9088 126.84C43.7371 126.942 44.4973 127.034 45.0743 127.1C45.3631 127.133 45.6044 127.16 45.7849 127.178C45.8753 127.187 45.9486 127.194 46.0041 127.198C46.0146 127.199 46.0243 127.2 46.0331 127.201C46.0503 127.192 46.0727 127.18 46.1007 127.163C46.2002 127.105 46.3358 127.015 46.5042 126.894C46.8389 126.653 47.27 126.316 47.7385 125.935C48.5841 125.247 49.5328 124.433 50.2183 123.832L48.7195 115.838L49.1253 115.703C50.9892 115.081 52.2808 113.377 53.1335 111.383C53.9815 109.4 54.3522 107.226 54.4314 105.84L54.4317 105.833L54.4323 105.827C54.9127 100.061 53.2306 96.9117 51.3416 95.1944C49.4258 93.4528 47.2219 93.1148 46.5827 93.1148C45.8571 93.1148 43.2513 93.1172 40.6871 94.2962ZM46.5784 92.1338H46.5827C47.4149 92.1338 49.8707 92.5315 52.0015 94.4686C54.1584 96.4294 55.9092 99.8996 55.4104 105.902C55.3253 107.377 54.9356 109.663 54.0355 111.769C53.1933 113.738 51.8658 115.636 49.8384 116.482L51.2853 124.199L51.0764 124.384C50.3786 124.999 49.3065 125.924 48.3575 126.696C47.8839 127.081 47.4351 127.433 47.0766 127.691C46.8983 127.819 46.7338 127.93 46.5954 128.01C46.5266 128.051 46.4551 128.089 46.3858 128.118C46.3305 128.142 46.2203 128.185 46.0922 128.185C45.9578 128.185 45.5214 128.139 44.9626 128.075C44.3814 128.008 43.6179 127.916 42.7888 127.814C41.1301 127.609 39.2039 127.364 37.9363 127.2L37.5806 127.154L36.5191 121.316L37.4655 116.348C35.7461 114.709 33.1227 110.023 34.0789 102.373C34.7155 97.2803 37.475 94.6933 40.2773 93.4049C43.0419 92.1338 45.8262 92.1338 46.5784 92.1338Z" fill="#244D5E"/>
<path d="M44.5453 116.168C46.8294 116.929 48.7486 116.485 49.5417 116.168L50.0176 119.023C46.9721 118.642 45.1797 117.04 44.5453 116.168Z" fill="#244D5E"/>
<path d="M43.8858 124.506C38.9808 124.506 36.9371 121.563 36.2831 120.092L34.5664 120.582L45.3573 176.499H47.074H73.3154L56.8839 123.525L51.2432 120.092H50.5074C50.1804 121.563 48.7907 124.506 43.8858 124.506Z" fill="white"/>
<path fill-rule="evenodd" clip-rule="evenodd" d="M36.5585 119.503L36.7317 119.893C37.3321 121.244 39.2303 124.016 43.8861 124.016C46.233 124.016 47.6829 123.315 48.5819 122.49C49.4901 121.656 49.8808 120.652 50.029 119.985L50.1143 119.601H51.3811L57.2977 123.203L73.9815 176.989H44.9527L34 120.234L36.5585 119.503ZM50.8864 120.582C50.6546 121.357 50.177 122.357 49.2454 123.212C48.1415 124.226 46.4442 124.997 43.8861 124.997C39.1222 124.997 36.8911 122.337 36.022 120.677L35.1335 120.931L45.7625 176.008H72.6501L56.4707 123.848L51.106 120.582H50.8864Z" fill="#244D5E"/>
<path d="M44.3757 149.276C43.0023 140.447 38.2445 125.978 36.0373 119.847C31.8681 120.582 22.5977 123.427 18.87 128.921C15.1422 134.414 10.1228 152.628 8.07909 161.048C5.87186 168.651 5.87186 176.989 14.2103 176.989H51.9783C55.9023 169.387 54.676 165.708 53.4498 164.236C52.4688 163.059 48.1166 162.111 46.0632 161.784C45.5295 157.391 44.9428 152.922 44.3757 149.276Z" fill="white"/>
<path fill-rule="evenodd" clip-rule="evenodd" d="M36.3585 119.292L35.9517 119.364C33.8313 119.738 30.4318 120.644 27.0861 122.152C23.7511 123.656 20.4032 125.787 18.4637 128.645C17.4996 130.066 16.4708 132.277 15.4418 134.895C14.4093 137.521 13.3647 140.588 12.3747 143.74C10.3961 150.04 8.62884 156.703 7.60463 160.922C6.49588 164.745 5.9159 168.829 6.71413 171.99C7.11662 173.584 7.87636 174.969 9.1194 175.952C10.3635 176.937 12.0424 177.48 14.2099 177.48H52.2768L52.4138 177.214C56.3795 169.531 55.235 165.613 53.8263 163.922C53.5053 163.537 52.9611 163.22 52.3711 162.955C51.7642 162.682 51.04 162.436 50.2948 162.22C48.968 161.836 47.538 161.538 46.5053 161.36C45.9833 157.083 45.4126 152.754 44.86 149.201C43.4786 140.32 38.7055 125.811 36.4984 119.68L36.3585 119.292ZM35.716 120.405C37.9781 126.741 42.5536 140.756 43.8906 149.352C44.4566 152.99 45.0425 157.452 45.5759 161.843L45.6205 162.21L45.9857 162.268C46.9978 162.429 48.5786 162.744 50.0218 163.162C50.7439 163.372 51.4201 163.603 51.9693 163.85C52.5354 164.104 52.903 164.347 53.0726 164.55C54.1039 165.788 55.3934 169.161 51.6778 176.499H14.2099C12.2082 176.499 10.7602 175.999 9.7281 175.183C8.69493 174.365 8.02918 173.191 7.66526 171.75C6.93143 168.844 7.45327 164.962 8.54977 161.185L8.5528 161.174L8.55537 161.164C9.57528 156.962 11.3382 150.314 13.3106 144.034C14.2968 140.894 15.3338 137.851 16.3548 135.254C17.3792 132.648 18.3757 130.522 19.2755 129.196C21.0637 126.561 24.2148 124.523 27.4893 123.047C30.5454 121.669 33.6511 120.806 35.716 120.405Z" fill="#244D5E"/>
<path d="M60.3165 149.276C58.7469 139.466 53.4496 125.569 50.9971 119.847C53.8583 120.01 60.5618 121.367 64.4858 125.487C69.3907 130.638 77.2386 149.767 78.7101 151.729C81.6531 155.162 104.234 164.305 104.706 165.953C106.668 168.651 104.461 175.763 102.009 176.989H63.5047C63.0959 171.676 61.886 159.086 60.3165 149.276Z" fill="white"/>
<path fill-rule="evenodd" clip-rule="evenodd" d="M50.2339 119.312L50.546 120.04C52.9959 125.756 58.2724 139.607 59.8319 149.354C61.3985 159.145 62.6071 171.72 63.0154 177.027L63.0502 177.48H102.124L102.228 177.428C102.966 177.059 103.624 176.288 104.163 175.377C104.71 174.451 105.17 173.321 105.486 172.151C105.802 170.981 105.98 169.752 105.947 168.629C105.916 167.54 105.686 166.5 105.141 165.719C105.094 165.613 105.028 165.525 104.97 165.457C104.888 165.363 104.789 165.27 104.681 165.181C104.464 165.002 104.174 164.805 103.832 164.593C103.147 164.167 102.2 163.654 101.082 163.081C99.2377 162.136 96.896 161.012 94.4314 159.829C93.9076 159.578 93.3782 159.324 92.8469 159.068C89.8102 157.608 86.7064 156.096 84.1793 154.736C82.9156 154.056 81.8031 153.418 80.9187 152.846C80.0327 152.273 79.4143 151.792 79.093 151.422C78.9382 151.211 78.6768 150.742 78.315 150.028C77.9531 149.313 77.509 148.39 76.9995 147.315C76.7164 146.718 76.4133 146.075 76.0936 145.396C75.2644 143.636 74.3229 141.638 73.3263 139.589C71.9451 136.75 70.453 133.804 68.9969 131.242C67.5465 128.69 66.1116 126.483 64.8407 125.149C62.8051 123.012 60.0685 121.609 57.5033 120.72C54.9356 119.83 52.4998 119.441 51.0248 119.357L50.2339 119.312ZM57.1821 121.647C59.6649 122.507 62.242 123.843 64.1304 125.826C65.312 127.066 66.6974 129.182 68.144 131.727C69.5849 134.262 71.0664 137.186 72.4442 140.018C73.4379 142.061 74.3751 144.05 75.2035 145.809C75.524 146.489 75.8282 147.134 76.1131 147.735C76.6229 148.81 77.0717 149.744 77.4398 150.471C77.8006 151.183 78.1031 151.737 78.3175 152.023L78.3271 152.036L78.3375 152.048C78.755 152.535 79.4821 153.086 80.3862 153.67C81.3018 154.262 82.44 154.914 83.7145 155.6C86.2637 156.972 89.3863 158.492 92.4217 159.952C92.9555 160.209 93.4866 160.464 94.0114 160.716C96.4759 161.899 98.8028 163.015 100.635 163.954C101.747 164.524 102.665 165.023 103.316 165.426C103.642 165.629 103.889 165.8 104.056 165.938C104.14 166.007 104.195 166.06 104.227 166.097C104.234 166.106 104.239 166.112 104.243 166.117L104.258 166.172L104.309 166.242C104.718 166.804 104.938 167.641 104.967 168.657C104.996 169.665 104.836 170.796 104.539 171.895C104.242 172.993 103.814 174.04 103.318 174.877C102.847 175.674 102.346 176.23 101.885 176.499H63.9581C63.5177 170.943 62.33 158.758 60.8005 149.199C59.2861 139.733 54.3355 126.527 51.766 120.404C53.167 120.558 55.1287 120.935 57.1821 121.647Z" fill="#244D5E"/>
<path d="M30.6424 158.105L34.3211 143.145L33.3401 157.86L51.5571 162.469C52.9277 162.816 54.1816 163.668 54.5798 165.025C55.8116 169.221 53.942 174.08 52.4694 175.763C53.9715 174.046 53.9408 165.708 52.2241 164.482C50.8507 163.501 33.8306 160.312 25.4922 158.841L30.6424 158.105Z" fill="#244D5E"/>
<path d="M67.1836 139.221L76.2577 176.989H80.1817L67.1836 139.221Z" fill="#244D5E"/>
<path d="M69.6374 176.989C69.6374 170.318 59.7458 168.324 54.9226 168.16C54.9226 171.496 53.2059 174.782 51.7344 176.989H69.6374Z" fill="white"/>
<path fill-rule="evenodd" clip-rule="evenodd" d="M54.4307 167.653L54.9378 167.67C57.3895 167.753 61.1345 168.3 64.2847 169.685C67.4207 171.065 70.1264 173.357 70.1264 176.989V177.48H50.8164L51.3248 176.717C52.7821 174.531 54.4307 171.346 54.4307 168.16V167.653ZM55.399 168.673C55.2555 171.599 53.9171 174.42 52.6311 176.499H69.1255C68.8977 173.729 66.7402 171.837 63.8898 170.583C61.0901 169.352 57.7588 168.806 55.399 168.673Z" fill="#244D5E"/>
<path d="M117.214 176.989C117.214 171.06 109.425 169.041 105.197 168.896C105.197 171.861 103.257 175.609 102.254 176.989H117.214Z" fill="white"/>
<path fill-rule="evenodd" clip-rule="evenodd" d="M104.706 168.388L105.214 168.406C107.379 168.48 110.458 169.032 113.014 170.337C115.571 171.642 117.704 173.763 117.704 176.989V177.48H101.291L101.857 176.701C102.332 176.047 103.05 174.8 103.648 173.35C104.248 171.895 104.706 170.285 104.706 168.896V168.388ZM105.67 169.411C105.576 170.845 105.109 172.381 104.555 173.724C104.115 174.792 103.608 175.764 103.163 176.499H116.704C116.504 174.06 114.814 172.357 112.568 171.21C110.356 170.081 107.69 169.543 105.67 169.411Z" fill="#244D5E"/>
<path d="M39.717 108.565L37.0193 120.092C31.722 120.092 25.9014 123.035 23.776 124.506C22.5497 116.904 27.2094 113.715 29.9071 107.829C32.6049 101.944 30.3976 88.2097 44.1315 88.2097C55.1185 88.2097 56.7208 98.0196 56.1486 102.925C51.2436 101.551 48.3824 96.4664 47.5649 94.0956C47.0744 95.3219 42.9052 106.358 41.4337 103.66C39.9623 100.963 37.755 100.227 36.5288 103.66C35.5478 106.407 38.2455 108.075 39.717 108.565Z" fill="#244D5E"/>
<path d="M59.582 122.299C56.2467 118.964 54.9223 111.263 54.6771 107.829C53.8923 113.519 50.7531 115.759 49.2817 116.168L50.0174 120.092C54.3337 119.896 58.1923 121.482 59.582 122.299Z" fill="#244D5E"/>
<path d="M17.6444 176.989C16.4672 169.141 10.5322 164.155 7.58928 162.765C5.99923 169.177 6.36307 176.989 13.23 176.989H17.6444Z" fill="#244D5E"/>
<path d="M99.4655 139.65L85.7732 170.743C85.0859 172.304 86.229 174.056 87.9345 174.056H129.715C130.675 174.056 131.539 173.476 131.902 172.587L144.596 141.494C145.23 139.941 144.087 138.24 142.409 138.24H101.627C100.691 138.24 99.8428 138.793 99.4655 139.65Z" fill="white"/>
<path fill-rule="evenodd" clip-rule="evenodd" d="M101.626 138.731C100.884 138.731 100.212 139.169 99.9132 139.848L86.221 170.941C85.6764 172.177 86.5821 173.566 87.9334 173.566H129.714C130.475 173.566 131.159 173.106 131.447 172.402L144.14 141.309C144.643 140.078 143.738 138.731 142.408 138.731H101.626ZM99.0154 139.452C99.4711 138.418 100.495 137.75 101.626 137.75H142.408C144.435 137.75 145.815 139.804 145.049 141.68L132.355 172.773C131.917 173.846 130.873 174.547 129.714 174.547H87.9334C85.8737 174.547 84.4931 172.43 85.3232 170.545L99.0154 139.452Z" fill="#244D5E"/>
<path d="M112.228 153.661C112.995 151.88 114.749 150.727 116.688 150.727C120.18 150.727 122.532 154.301 121.149 157.508L120.804 158.307C120.036 160.088 118.283 161.241 116.344 161.241C112.851 161.241 110.5 157.667 111.883 154.46L112.228 153.661Z" fill="#244D5E"/>
<path d="M129.059 177.014H56.5479C55.3683 177.014 54.4121 176.057 54.4121 174.878C54.4121 173.698 55.3683 172.742 56.5479 172.742H129.059C130.59 172.742 131.623 174.304 131.025 175.713C130.69 176.502 129.916 177.014 129.059 177.014Z" fill="#244D5E"/>
</svg>
