<svg width="156" height="109" viewBox="0 0 156 109" fill="none" xmlns="http://www.w3.org/2000/svg">
<path d="M114.094 23.0789C114.094 25.3788 109.456 25.0705 106.245 24.1652C101.606 23.0789 98.395 20.9061 99.4655 16.1985C99.4655 12.3962 103.212 13.0256 107.672 14.75C111.418 16.1985 114.094 20.7789 114.094 23.0789Z" fill="#E7E8FF"/>
<path d="M6.43134 85.7224C6.43134 90.7449 8.73437 95.6467 11.5636 99.7025C15.961 106.006 23.7764 108.4 31.4589 108.4H123.07C128.394 108.4 131.919 100.875 132.094 95.5507C132.353 87.6361 136.876 78.6699 135.556 65.3513C133.5 44.5958 119.518 38.2539 104.92 30.3745C90.3213 22.4951 99.7795 10.9643 74.6948 4.04579C49.61 -2.8727 23.0859 19.9968 23.9084 41.3288C24.7308 62.6608 6.43134 65.7356 6.43134 85.7224Z" fill="#E7E8FF"/>
<path d="M64.3454 108.4H82.3012C92.04 104.857 101.779 88.5301 92.8009 90.2244C83.8229 91.9187 74.9972 91.1486 86.7141 85.2956C98.4311 79.4425 92.04 74.9757 86.7141 75.4378C81.3883 75.8999 82.3012 72.2032 84.4316 65.118C86.562 58.0327 84.4316 51.5636 78.4971 51.5636C72.5625 51.5636 77.2797 69.1227 72.5625 70.3549C67.8453 71.5871 70.1278 63.4237 64.3454 65.118C58.5629 66.8123 67.9974 86.9899 64.3454 85.2956C60.6933 83.6013 61.1498 75.4378 54.6066 81.5989C49.372 86.5278 58.918 101.52 64.3454 108.4Z" fill="white"/>
<path d="M44.6055 6.04038C44.6055 4.47753 45.8724 3.21059 47.4353 3.21059H97.512C99.0748 3.21059 100.342 4.47753 100.342 6.04038V70.2796C100.342 71.8424 99.0748 73.1094 97.512 73.1094H47.4353C45.8724 73.1094 44.6055 71.8424 44.6055 70.2796V6.04038Z" fill="white"/>
<path fill-rule="evenodd" clip-rule="evenodd" d="M44.1816 6.04038C44.1816 4.24328 45.6385 2.78644 47.4356 2.78644H97.5123C99.3094 2.78644 100.766 4.24328 100.766 6.04038V70.2796C100.766 72.0767 99.3094 73.5335 97.5123 73.5335H47.4356C45.6385 73.5335 44.1816 72.0767 44.1816 70.2796V6.04038ZM47.4356 3.63474C46.107 3.63474 45.0299 4.71178 45.0299 6.04038V70.2796C45.0299 71.6082 46.107 72.6852 47.4356 72.6852H97.5123C98.8409 72.6852 99.9179 71.6082 99.9179 70.2796V6.04038C99.9179 4.71178 98.8409 3.63474 97.5123 3.63474H47.4356Z" fill="#244D5E"/>
<path d="M44.6055 6.04038C44.6055 4.47753 45.8724 3.21059 47.4353 3.21059H97.512C99.0748 3.21059 100.342 4.47753 100.342 6.04038V12.8045H44.6055V6.04038Z" fill="#244D5E"/>
<path d="M53.2865 8.00756C53.2865 9.14297 52.3661 10.0634 51.2307 10.0634C50.0952 10.0634 49.1748 9.14297 49.1748 8.00756C49.1748 6.87215 50.0952 5.95171 51.2307 5.95171C52.3661 5.95171 53.2865 6.87215 53.2865 8.00756Z" fill="white"/>
<path d="M60.139 8.00756C60.139 9.14297 59.2186 10.0634 58.0832 10.0634C56.9478 10.0634 56.0273 9.14297 56.0273 8.00756C56.0273 6.87215 56.9478 5.95171 58.0832 5.95171C59.2186 5.95171 60.139 6.87215 60.139 8.00756Z" fill="white"/>
<path d="M66.9916 8.00756C66.9916 9.14297 66.0711 10.0634 64.9357 10.0634C63.8003 10.0634 62.8799 9.14297 62.8799 8.00756C62.8799 6.87215 63.8003 5.95171 64.9357 5.95171C66.0711 5.95171 66.9916 6.87215 66.9916 8.00756Z" fill="white"/>
<path fill-rule="evenodd" clip-rule="evenodd" d="M81.6109 20.5384H52.6006V19.6901H81.6109V20.5384Z" fill="#E7E8FF"/>
<path fill-rule="evenodd" clip-rule="evenodd" d="M81.6109 50.2339H52.6006V49.3856H81.6109V50.2339Z" fill="#E7E8FF"/>
<path fill-rule="evenodd" clip-rule="evenodd" d="M81.6109 58.4573H52.6006V57.609H81.6109V58.4573Z" fill="#E7E8FF"/>
<path fill-rule="evenodd" clip-rule="evenodd" d="M52.8623 29.34C52.8623 27.5429 54.3191 26.086 56.1162 26.086H84.2639C86.061 26.086 87.5179 27.5429 87.5179 29.34V40.1272C87.5179 41.9243 86.061 43.3811 84.2639 43.3811H56.1162C54.3191 43.3811 52.8623 41.9243 52.8623 40.1272V29.34ZM56.1162 26.9343C54.7876 26.9343 53.7106 28.0114 53.7106 29.34V40.1272C53.7106 41.4558 54.7876 42.5328 56.1162 42.5328H84.2639C85.5925 42.5328 86.6696 41.4558 86.6696 40.1272V29.34C86.6696 28.0114 85.5925 26.9343 84.2639 26.9343H56.1162Z" fill="#244D5E"/>
<path d="M69.7334 65.4315C69.7334 63.8687 71.0003 62.6017 72.5632 62.6017H72.8427C74.4056 62.6017 75.6725 63.8687 75.6725 65.4315V65.711C75.6725 67.2739 74.4056 68.5408 72.8427 68.5408H72.5632C71.0003 68.5408 69.7334 67.2739 69.7334 65.711V65.4315Z" fill="#244D5E"/>
<path fill-rule="evenodd" clip-rule="evenodd" d="M80.2734 65.4315C80.2734 63.6344 81.7303 62.1776 83.5274 62.1776H83.8069C85.604 62.1776 87.0608 63.6344 87.0608 65.4315V65.711C87.0608 67.5081 85.604 68.965 83.8069 68.965H83.5274C81.7303 68.965 80.2734 67.5081 80.2734 65.711V65.4315ZM83.5274 63.0259C82.1988 63.0259 81.1217 64.1029 81.1217 65.4315V65.711C81.1217 67.0396 82.1988 68.1167 83.5274 68.1167H83.8069C85.1355 68.1167 86.2125 67.0396 86.2125 65.711V65.4315C86.2125 64.1029 85.1355 63.0259 83.8069 63.0259H83.5274Z" fill="#E7E8FF"/>
<path fill-rule="evenodd" clip-rule="evenodd" d="M65.3843 30.9173C64.8735 30.1118 63.6912 30.1328 63.2094 30.956L59.6262 37.0772C59.2455 37.7276 58.5485 38.1272 57.7949 38.1272H53.2861V37.2789H57.7949C58.2472 37.2789 58.6656 37.0391 58.8941 36.6487L62.4773 30.5274C63.28 29.1561 65.2497 29.1211 66.1007 30.463L69.2684 35.4582C69.7379 36.1985 70.7974 36.2544 71.3421 35.5676L73.8965 32.3468C74.6982 31.336 76.2089 31.2685 77.0976 32.2039L79.5892 34.8267C79.8296 35.0798 80.1635 35.2231 80.5126 35.2231H86.865V36.0714H80.5126C79.931 36.0714 79.3748 35.8326 78.9742 35.4109L76.4825 32.7882C75.9492 32.2267 75.0423 32.2672 74.5611 32.874L72.0067 36.0947C71.0993 37.2389 69.3341 37.1458 68.552 35.9125L65.3843 30.9173Z" fill="#244D5E"/>
<path d="M146.741 88.8888H67.705C66.1911 88.8888 64.9639 90.116 64.9639 91.6299C64.9639 93.1438 66.1911 94.371 67.705 94.371H146.741C148.255 94.371 149.482 93.1438 149.482 91.6299C149.482 90.116 148.255 88.8888 146.741 88.8888Z" fill="white"/>
<path fill-rule="evenodd" clip-rule="evenodd" d="M64.54 91.6299C64.54 89.8818 65.9572 88.4646 67.7053 88.4646H146.741C148.489 88.4646 149.906 89.8818 149.906 91.6299C149.906 93.378 148.489 94.7952 146.741 94.7952H67.7053C65.9572 94.7952 64.54 93.378 64.54 91.6299ZM67.7053 89.3129C66.4257 89.3129 65.3883 90.3503 65.3883 91.6299C65.3883 92.9095 66.4257 93.9469 67.7053 93.9469H146.741C148.021 93.9469 149.058 92.9095 149.058 91.6299C149.058 90.3503 148.021 89.3129 146.741 89.3129H67.7053Z" fill="#244D5E"/>
<path d="M73.498 106.934L76.412 94.6335H83.6776L78.2661 106.934H73.498Z" fill="white"/>
<path fill-rule="evenodd" clip-rule="evenodd" d="M76.0769 94.2094H84.3279L78.5431 107.358H72.9619L76.0769 94.2094ZM76.7477 95.0577L74.0347 106.51H77.9896L83.0279 95.0577H76.7477Z" fill="#244D5E"/>
<path d="M140.09 106.934L137.314 94.6335H129.91L135.231 106.934H140.09Z" fill="white"/>
<path fill-rule="evenodd" clip-rule="evenodd" d="M137.766 94.0676H129.049L134.86 107.5H140.798L137.766 94.0676ZM136.861 95.1995L139.382 106.368H135.603L130.772 95.1995H136.861Z" fill="#244D5E"/>
<path d="M30.7353 1.96198L29.1261 4.11993C29.0282 4.25123 28.8686 4.3144 28.7122 4.28372L26.7233 3.8935C26.2954 3.80955 26.0373 4.37265 26.3675 4.66965L27.9306 6.07543C28.0447 6.17806 28.0986 6.33614 28.0724 6.49124L27.6802 8.80924C27.6065 9.24501 28.1189 9.51473 28.409 9.19286L30.0147 7.41151C30.109 7.30693 30.2456 7.25639 30.3817 7.2758L32.24 7.54078C32.6586 7.60047 32.8957 7.05421 32.5774 6.76337L31.1954 5.50062C31.0844 5.39921 31.0314 5.24495 31.0552 5.09277L31.491 2.30831C31.5622 1.85291 31.0065 1.59824 30.7353 1.96198Z" fill="#E7E8FF"/>
<path d="M108.056 1.7092L107.426 2.48606C107.388 2.53333 107.325 2.55607 107.264 2.54503L106.486 2.40455C106.319 2.37432 106.218 2.57704 106.347 2.68396L106.958 3.19004C107.003 3.22699 107.024 3.2839 107.014 3.33973L106.86 4.17421C106.832 4.33109 107.032 4.42819 107.146 4.31232L107.774 3.67103C107.811 3.63338 107.864 3.61519 107.918 3.62217L108.645 3.71757C108.808 3.73906 108.901 3.5424 108.777 3.4377L108.236 2.98311C108.193 2.9466 108.172 2.89107 108.181 2.83628L108.352 1.83388C108.379 1.66994 108.162 1.57825 108.056 1.7092Z" fill="#E7E8FF"/>
<path d="M122.34 24.0342L121.427 28.3743V31.1153L123.482 32.9428L129.65 32.2575V28.1458L129.422 23.3488C131.934 20.1508 132.848 13.9833 130.107 10.7854C127.366 7.58738 120.284 7.13052 118.914 14.6686C117.817 20.6991 120.741 23.425 122.34 24.0342Z" fill="white"/>
<path fill-rule="evenodd" clip-rule="evenodd" d="M124.075 9.11784C121.985 9.5096 119.989 11.1252 119.331 14.7445C118.267 20.596 121.103 23.1091 122.491 23.6378L122.83 23.7668L121.851 28.4184V30.9249L123.623 32.5004L129.226 31.8778V28.1559L128.99 23.2111L129.088 23.0868C130.285 21.5632 131.118 19.3042 131.312 17.031C131.506 14.7534 131.054 12.5424 129.785 11.0614C128.514 9.57835 126.211 8.71727 124.075 9.11784ZM123.918 8.28407C126.35 7.82805 128.959 8.79438 130.429 10.5093C131.9 12.2263 132.362 14.698 132.157 17.1032C131.956 19.4526 131.114 21.8156 129.853 23.4843L130.074 28.1357V32.6371L123.342 33.3851L121.002 31.3058V28.3301L121.854 24.2832C120.035 23.3795 117.435 20.4326 118.497 14.5927C119.209 10.6739 121.439 8.74892 123.918 8.28407Z" fill="#244D5E"/>
<path d="M107.492 108.552L109.832 82.9684H142.592L145.868 108.552H107.492Z" fill="#244D5E"/>
<path d="M85.5633 35.2271C85.5633 35.9581 86.3248 37.2068 86.7055 37.7398L86.2486 40.4809L82.8222 40.9378C81.9085 39.7957 79.1674 39.3388 78.4821 37.5114C77.9339 36.0494 79.4719 34.4657 80.3095 34.085L77.4703 30.11C77.1379 29.6447 77.216 29.0027 77.6501 28.6306C78.1105 28.2359 78.8032 28.2867 79.2011 28.7443L83.0506 33.1713C83.0506 33.3235 83.1877 33.3083 83.7359 32.0291C84.4212 30.4301 85.1065 31.1154 85.5633 31.3438C86.0202 31.5723 85.5633 34.3134 85.5633 35.2271Z" fill="white"/>
<path fill-rule="evenodd" clip-rule="evenodd" d="M77.3744 28.3085C78.0118 27.7622 78.9707 27.8325 79.5216 28.466L83.0474 32.5208C83.1258 32.3613 83.2244 32.1468 83.3464 31.862C83.7051 31.0251 84.1523 30.577 84.7356 30.577C84.9927 30.577 85.2143 30.6697 85.3753 30.7523C85.4564 30.7939 85.5327 30.8386 85.5947 30.8751L85.5969 30.8764C85.6641 30.9158 85.7116 30.9436 85.7534 30.9645C85.9703 31.0729 86.0592 31.2844 86.0992 31.4107C86.1451 31.5556 86.1678 31.7231 86.1795 31.8886C86.2031 32.2231 86.1869 32.6403 86.1581 33.0577C86.1345 33.4 86.1013 33.7573 86.0707 34.0861C86.0637 34.1609 86.0569 34.2343 86.0503 34.3057C86.0141 34.7002 85.9878 35.022 85.9878 35.2271C85.9878 35.4828 86.1336 35.8981 86.3704 36.3662C86.5971 36.8141 86.8709 37.2412 87.051 37.4933L87.1531 37.6362L86.6158 40.8599L82.6411 41.3899L82.4913 41.2028C82.3133 40.9802 82.0266 40.7694 81.641 40.5436C81.4058 40.4058 81.1632 40.2784 80.9059 40.1431C80.7324 40.052 80.5521 39.9572 80.3629 39.8535C79.4795 39.369 78.4881 38.7344 78.0853 37.6603C77.7425 36.7461 78.0674 35.8366 78.5244 35.1562C78.8561 34.6624 79.2903 34.2376 79.6955 33.9546L77.1254 30.3565C76.6654 29.7125 76.7734 28.8236 77.3744 28.3085ZM83.4751 33.1713V33.1677C83.4752 33.1694 83.4751 33.1708 83.4751 33.1713ZM78.8814 29.0227C78.6364 28.7409 78.21 28.7096 77.9265 28.9526C77.6592 29.1817 77.6111 29.577 77.8157 29.8635L80.9546 34.2578L80.4854 34.4711C80.1499 34.6236 79.6132 35.0567 79.2286 35.6292C78.8442 36.2014 78.6742 36.8147 78.8796 37.3624C79.1621 38.1157 79.8838 38.6233 80.7708 39.1097C80.9298 39.1969 81.0991 39.286 81.2699 39.3759C81.5449 39.5207 81.8237 39.6675 82.0696 39.8115C82.4016 40.0059 82.7281 40.2245 82.9884 40.4878L85.8821 40.1019L86.2591 37.8403C86.0674 37.5584 85.8234 37.1639 85.6135 36.7492C85.3745 36.2769 85.1395 35.7024 85.1395 35.2271C85.1395 34.9754 85.1704 34.6119 85.2056 34.2282C85.2123 34.1544 85.2193 34.0793 85.2264 34.0033C85.257 33.675 85.289 33.3304 85.3119 32.9993C85.3402 32.5886 85.3525 32.2206 85.3333 31.9483C85.3244 31.8224 85.3099 31.7353 85.2948 31.6813C85.2522 31.6577 85.2111 31.6336 85.1745 31.6121L85.1673 31.6078C85.1021 31.5696 85.0454 31.5364 84.9882 31.5071C84.8708 31.4469 84.7927 31.4253 84.7356 31.4253C84.6908 31.4253 84.4527 31.4341 84.1261 32.1962C83.8525 32.8346 83.6658 33.1968 83.5338 33.3827C83.4997 33.4306 83.4578 33.4836 83.4074 33.529C83.3738 33.5593 83.2577 33.6611 83.081 33.6611C82.8324 33.6611 82.7067 33.479 82.6659 33.3804C82.6645 33.377 82.6632 33.3736 82.6619 33.3702L78.8814 29.0227ZM85.2792 31.6381C85.2793 31.6379 85.2806 31.64 85.2827 31.645C85.2802 31.6408 85.2791 31.6383 85.2792 31.6381Z" fill="#244D5E"/>
<path d="M125.082 30.6586C121.976 30.6586 121.199 28.222 121.199 27.0037C119.006 27.0037 117.57 28.0744 117.113 28.379L113.432 38.8819L112.747 83.1969C120.422 85.5725 130.108 84.1867 133.991 83.1969L136.504 28.6027C134.994 27.6418 132.788 27.2223 131.202 27.073C130.427 26.9999 129.759 27.5491 129.363 28.2198C128.674 29.3856 127.328 30.6586 125.082 30.6586Z" fill="white"/>
<path fill-rule="evenodd" clip-rule="evenodd" d="M117.466 28.6517L113.855 38.9573L113.175 82.8834C120.499 85.0402 129.602 83.8214 133.581 82.8613L136.068 28.8347C134.653 28.0171 132.657 27.6361 131.162 27.4953C130.624 27.4446 130.086 27.8285 129.727 28.4356C128.985 29.6923 127.517 31.0827 125.081 31.0827C123.4 31.0827 122.303 30.4155 121.638 29.5457C121.116 28.863 120.875 28.077 120.801 27.4405C119.121 27.5474 117.974 28.3075 117.466 28.6517ZM116.969 27.9636C117.516 27.5915 119.003 26.5796 121.198 26.5796H121.622V27.0037C121.622 27.5396 121.797 28.3572 122.312 29.0303C122.811 29.6834 123.656 30.2344 125.081 30.2344C127.137 30.2344 128.362 29.0789 128.997 28.004C129.431 27.2696 130.228 26.5553 131.242 26.6507C132.843 26.8015 135.132 27.2279 136.731 28.2449L136.938 28.3768L134.399 83.5303L134.095 83.6079C130.181 84.6056 120.405 86.0115 112.621 83.602L112.317 83.5081L113.009 38.8066L116.759 28.1048L116.877 28.0261C116.904 28.0081 116.935 27.9871 116.969 27.9636Z" fill="#244D5E"/>
<path d="M117.087 50.7601C117.406 45.1678 119.146 35.0932 120.291 29.0871C120.508 27.9487 119.549 26.9255 118.435 27.2456C107.6 30.3595 104.977 44.607 101.554 44.821C99.1163 44.9733 93.2297 40.9038 89.3972 37.9573C88.2447 37.0712 86.6082 37.152 85.5802 38.18L83.1306 40.6296C82.3804 41.3798 82.1014 42.4871 82.5176 43.4629C85.3477 50.0978 93.3054 60.5701 98.3555 63.0952C102.741 65.2881 106.274 62.1815 107.493 60.3541C107.417 66.217 107.31 78.7196 107.493 81.8262C107.721 85.7095 107.493 88.9075 110.234 89.3643C112.975 89.8212 118.229 88.9075 118.229 87.9938C118.229 87.0801 116.63 58.7551 117.087 50.7601Z" fill="white"/>
<path fill-rule="evenodd" clip-rule="evenodd" d="M118.317 26.8379C119.79 26.4146 120.972 27.7762 120.707 29.1665C119.562 35.1764 117.828 45.2241 117.51 50.7843C117.283 54.756 117.567 63.8115 117.91 72.0147C118.122 77.0973 118.358 81.8562 118.505 84.8414C118.595 86.6572 118.653 87.8168 118.653 87.9938C118.653 88.3173 118.427 88.5418 118.252 88.6733C118.058 88.8183 117.801 88.9437 117.518 89.0533C116.946 89.2744 116.173 89.4658 115.331 89.611C113.652 89.9005 111.6 90.0221 110.164 89.7827C109.39 89.6538 108.798 89.3238 108.36 88.8175C107.93 88.3208 107.673 87.6831 107.508 86.9769C107.26 85.9175 107.2 84.5966 107.136 83.1877C107.116 82.749 107.095 82.3017 107.069 81.8512C106.897 78.9305 106.979 67.8069 107.053 61.5843C106.366 62.3256 105.426 63.0928 104.289 63.6174C102.605 64.3949 100.489 64.6361 98.1655 63.4746C95.5501 62.1669 92.2491 58.8509 89.271 55.0833C86.2821 51.3019 83.5617 46.9925 82.1272 43.6294C81.6347 42.4749 81.9733 41.1867 82.8304 40.3297L83.1303 40.6296L82.8304 40.3297L85.2799 37.8801C86.4635 36.6965 88.3397 36.6095 89.6554 37.6211C91.5655 39.0896 93.9815 40.8332 96.2181 42.1885C97.3369 42.8664 98.4019 43.4417 99.3306 43.8369C100.274 44.2384 101.022 44.4292 101.527 44.3977C101.806 44.3802 102.13 44.2156 102.519 43.8306C102.905 43.4487 103.31 42.8949 103.753 42.1954C104.195 41.4985 104.661 40.6799 105.173 39.7775L105.192 39.7455C105.697 38.8552 106.247 37.8887 106.853 36.8991C109.302 32.9039 112.738 28.4414 118.317 26.8379ZM119.874 29.0077C120.043 28.1211 119.306 27.4364 118.552 27.6532C113.296 29.1637 110.004 33.382 107.576 37.3424C106.977 38.3199 106.434 39.2761 105.927 40.1691L105.911 40.1966C105.401 41.0942 104.925 41.932 104.47 42.6496C104.017 43.3644 103.571 43.9832 103.116 44.4336C102.664 44.8808 102.156 45.2083 101.58 45.2443C100.866 45.2889 99.9639 45.0282 98.9985 44.6175C98.0182 44.2003 96.915 43.6027 95.7785 42.914C93.5043 41.5359 91.0607 39.7715 89.1384 38.2936C88.1491 37.533 86.7522 37.6075 85.8798 38.48L83.4302 40.9295C82.7869 41.5728 82.5674 42.4993 82.9074 43.2965C84.303 46.5683 86.9765 50.8124 89.9365 54.5572C92.9074 58.3157 96.1102 61.4985 98.5449 62.7158C100.608 63.7472 102.451 63.5315 103.934 62.8471C105.434 62.1549 106.565 60.9802 107.139 60.1188L107.935 58.9253L107.917 60.3596C107.84 66.2325 107.734 78.7142 107.916 81.8013C107.945 82.2906 107.966 82.7626 107.987 83.2155C108.05 84.6009 108.105 85.8078 108.334 86.7835C108.482 87.4193 108.696 87.9095 109.002 88.2623C109.299 88.6054 109.706 88.8465 110.303 88.946C111.608 89.1634 113.554 89.0566 115.187 88.775C116.001 88.6347 116.713 88.4549 117.212 88.262C117.464 88.1646 117.639 88.0723 117.743 87.9942C117.773 87.9719 117.792 87.9548 117.803 87.943C117.796 87.6648 117.743 86.5978 117.663 84.9818C117.517 82.0223 117.279 77.221 117.062 72.0501C116.72 63.8637 116.433 54.7592 116.663 50.7359C116.984 45.1114 118.73 35.0101 119.874 29.0077ZM117.82 87.924C117.82 87.924 117.819 87.9248 117.818 87.9264C117.819 87.9248 117.82 87.924 117.82 87.924Z" fill="#244D5E"/>
<path d="M128.051 50.5317C128.219 46.3315 130.331 34.9872 131.617 28.57C131.794 27.688 132.633 27.0945 133.5 27.3354C145.339 30.6252 154.739 50.8856 153.863 58.9836C153.132 65.745 147.772 76.4202 145.183 80.9126C145.335 83.6537 145.366 89.2273 144.269 89.5928C142.899 90.0497 131.02 89.5928 130.335 88.2223C129.65 86.8517 127.822 56.2424 128.051 50.5317Z" fill="white"/>
<path fill-rule="evenodd" clip-rule="evenodd" d="M133.386 27.744C132.789 27.578 132.168 27.9795 132.033 28.6533C130.744 35.0852 128.641 46.3901 128.475 50.5487C128.362 53.3779 128.76 62.4333 129.274 70.9791C129.531 75.246 129.816 79.3755 130.08 82.5226C130.212 84.0966 130.338 85.4216 130.452 86.394C130.51 86.8807 130.563 87.2744 130.612 87.565C130.637 87.7106 130.66 87.8255 130.68 87.9109C130.698 87.9852 130.71 88.0201 130.714 88.0299C130.719 88.0356 130.744 88.0643 130.815 88.1094C130.906 88.1661 131.039 88.229 131.219 88.2947C131.581 88.4259 132.08 88.5494 132.686 88.6618C133.895 88.8861 135.469 89.056 137.075 89.1697C138.68 89.2833 140.304 89.34 141.61 89.34C142.264 89.34 142.833 89.3258 143.279 89.298C143.739 89.2693 144.02 89.2282 144.133 89.1914C144.132 89.1908 144.181 89.1653 144.256 89.0262C144.336 88.879 144.413 88.66 144.484 88.3683C144.624 87.7874 144.717 86.9997 144.771 86.1173C144.88 84.3578 144.835 82.2969 144.76 80.9361L144.753 80.8101L144.816 80.7008C146.103 78.4673 148.083 74.6901 149.83 70.6312C151.583 66.5626 153.083 62.2521 153.442 58.938C153.652 56.9964 153.246 54.2756 152.31 51.2087C151.377 48.1512 149.927 44.7857 148.082 41.5674C144.377 35.1055 139.14 29.3428 133.386 27.744ZM131.201 28.4866C131.42 27.3964 132.478 26.6111 133.613 26.9267C139.699 28.6177 145.082 34.6302 148.818 41.1454C150.693 44.4157 152.169 47.8393 153.121 50.961C154.072 54.0733 154.513 56.9218 154.285 59.0291C153.912 62.4764 152.368 66.8843 150.61 70.9667C148.875 74.9936 146.916 78.744 145.613 81.0151C145.686 82.3948 145.726 84.4199 145.618 86.1698C145.562 87.0692 145.466 87.9147 145.309 88.5674C145.23 88.8924 145.131 89.1903 145.003 89.4285C144.88 89.6566 144.693 89.8987 144.404 89.9952C144.172 90.0724 143.783 90.1165 143.332 90.1446C142.863 90.1739 142.274 90.1883 141.61 90.1883C140.283 90.1883 138.638 90.1308 137.015 90.0159C135.395 89.9012 133.785 89.7285 132.532 89.4959C131.906 89.3799 131.355 89.2464 130.93 89.0921C130.718 89.015 130.524 88.9281 130.364 88.8277C130.211 88.7314 130.049 88.5982 129.956 88.412C129.911 88.3226 129.88 88.2106 129.855 88.1086C129.829 87.9975 129.802 87.862 129.776 87.7067C129.723 87.3955 129.668 86.9856 129.61 86.493C129.494 85.5068 129.367 84.1709 129.235 82.5934C128.97 79.4373 128.684 75.3006 128.427 71.03C127.914 62.5009 127.512 53.3963 127.627 50.5148C127.797 46.2729 129.918 34.8892 131.201 28.4866Z" fill="#244D5E"/>
<path d="M130.65 81.4283C129.215 80.8085 128.554 79.143 129.174 77.7083L133.674 67.292C134.294 65.8573 135.959 65.1967 137.394 65.8165L152.689 72.4239C154.123 73.0437 154.784 74.7092 154.164 76.1439L149.664 86.5601C149.045 87.9948 147.379 88.6554 145.944 88.0356L130.65 81.4283Z" fill="white"/>
<path fill-rule="evenodd" clip-rule="evenodd" d="M130.481 81.8176C128.832 81.1049 128.072 79.1898 128.785 77.5401L133.284 67.1238C133.997 65.4741 135.912 64.7145 137.562 65.4271L152.857 72.0345C154.507 72.7472 155.266 74.6623 154.554 76.3121L150.054 86.7283C149.341 88.3781 147.426 89.1377 145.776 88.425L130.481 81.8176ZM129.563 77.8765C129.036 79.0961 129.598 80.512 130.818 81.0389L146.113 87.6463C147.332 88.1732 148.748 87.6116 149.275 86.3919L153.775 75.9757C154.302 74.756 153.74 73.3402 152.52 72.8133L137.226 66.2059C136.006 65.679 134.59 66.2406 134.063 67.4603L129.563 77.8765Z" fill="#244D5E"/>
<path d="M152.722 50.7602C151.275 53.0445 149.067 59.349 151.808 66.2932C153.179 63.7044 155.28 56.9734 152.722 50.7602Z" fill="#244D5E"/>
<path d="M94.0156 59.6689C96.2238 59.1359 101.782 58.8008 106.351 61.7247C104.523 63.7806 99.4979 66.2476 94.0156 59.6689Z" fill="#244D5E"/>
<path d="M108.634 47.5622C108.177 51.6739 107.721 56.9277 107.492 60.811C106.396 62.0902 103.685 63.3237 102.467 63.7805C105.573 60.3084 107.264 52.5876 108.634 47.5622Z" fill="#244D5E"/>
<path d="M134.934 82.5785C135.116 82.0303 136.989 80.2181 137.903 79.3806C139.807 79.1521 143.477 79.3806 142.929 82.1217C142.243 85.5481 141.558 88.2892 137.903 87.1471C134.979 86.2334 135.314 84.3298 135.847 83.4922C135.467 83.4161 134.751 83.1268 134.934 82.5785Z" fill="white"/>
<path fill-rule="evenodd" clip-rule="evenodd" d="M142.983 80.2535C143.361 80.7665 143.501 81.4203 143.344 82.2049C143.173 83.0606 142.998 83.8928 142.774 84.6356C142.55 85.3766 142.269 86.0573 141.871 86.5988C141.466 87.1492 140.938 87.5584 140.238 87.7366C139.548 87.9122 138.736 87.8518 137.776 87.5519C136.23 87.0689 135.443 86.2874 135.173 85.4165C134.984 84.8046 135.07 84.2095 135.25 83.7414C135.139 83.6906 135.028 83.6285 134.927 83.5536C134.788 83.4516 134.645 83.309 134.558 83.1157C134.466 82.9112 134.452 82.6803 134.531 82.4444C134.572 82.319 134.649 82.1917 134.725 82.0795C134.806 81.9608 134.906 81.8305 135.019 81.6947C135.244 81.4227 135.533 81.1099 135.839 80.7933C136.452 80.1591 137.155 79.4906 137.616 79.0679L137.717 78.9757L137.852 78.9594C138.834 78.8416 140.299 78.8358 141.472 79.2361C142.061 79.4373 142.617 79.7548 142.983 80.2535ZM138.088 79.7867C139 79.6924 140.244 79.7132 141.198 80.0389C141.696 80.209 142.074 80.4482 142.3 80.7562C142.516 81.0498 142.629 81.4525 142.512 82.0385C142.341 82.8959 142.173 83.6913 141.962 84.3904C141.75 85.0914 141.503 85.6671 141.187 86.0963C140.878 86.5168 140.507 86.7928 140.029 86.9145C139.541 87.0387 138.897 87.0134 138.029 86.7422C136.651 86.3116 136.144 85.6844 135.983 85.1657C135.815 84.6231 135.984 84.0671 136.205 83.72L136.537 83.1977L135.93 83.0763C135.775 83.0453 135.567 82.9717 135.43 82.8712C135.365 82.8228 135.34 82.7856 135.332 82.7681C135.332 82.7678 135.332 82.7675 135.332 82.7671C135.329 82.7606 135.323 82.749 135.335 82.7127C135.335 82.7126 135.336 82.7115 135.337 82.7095C135.337 82.7072 135.339 82.704 135.341 82.6999C135.345 82.6914 135.35 82.6802 135.358 82.6659C135.374 82.637 135.396 82.6007 135.426 82.5566C135.487 82.468 135.569 82.3603 135.672 82.236C135.878 81.9878 136.149 81.6925 136.449 81.3828C137.003 80.809 137.637 80.2026 138.088 79.7867Z" fill="#244D5E"/>
<path d="M126.165 108.543L124.023 96.1327V108.543H126.165Z" fill="white"/>
<path d="M129.194 18.7803L129.422 22.892L129.65 27.0036C133.853 26.8209 137.341 28.7549 138.559 29.7447C140.158 23.1203 134.676 18.7803 134.676 16.2676C134.676 13.7549 133.534 5.98841 125.767 5.75998C119.941 5.58864 118.347 10.3572 118.233 13.7772C118.221 14.125 118.539 14.3808 118.866 14.2603C120.43 13.6829 122.43 12.0766 123.62 10.8143C123.951 10.4632 124.633 10.5755 124.848 11.0072C125.398 12.1088 126.202 13.1288 126.779 13.8259C126.863 13.928 126.909 14.0549 126.911 14.1873C126.924 14.8349 126.991 15.7137 127.095 16.5817C127.168 17.1904 128.014 17.1882 128.206 16.6057C128.421 15.9508 128.68 15.3244 128.965 14.897C129.879 13.5265 131.249 14.6686 131.249 16.2676C131.249 17.5468 129.879 18.4757 129.194 18.7803Z" fill="#244D5E"/>
<path d="M116.858 27.9174C117.772 27.0037 118.762 22.5113 119.143 20.3793C119.508 22.2068 121.427 23.5773 122.341 24.0341L121.655 26.7753C119.828 26.7753 117.696 27.5367 116.858 27.9174Z" fill="#244D5E"/>
<path d="M142.004 81.4804L138.695 80.1768C137.425 79.6766 136.693 78.342 136.951 77.0018C137.664 73.2835 138.576 68.4004 139.245 64.4898L150.666 69.4912C149.387 72.9633 146.935 77.7907 145.869 79.7704L145.33 80.512C144.571 81.5548 143.204 81.953 142.004 81.4804Z" fill="white"/>
<path d="M140.158 58.0698C140.158 56.0597 136.579 50.151 134.904 46.6485C138.584 57.5891 138.798 60.1586 137.085 76.4326C138.156 71.0793 140.158 59.029 140.158 58.0698Z" fill="#244D5E"/>
<path d="M125.95 23.9705C124.409 24.6557 122.881 24.256 122.31 23.9705L121.882 26.1118C123.937 26.1118 125.451 24.6842 125.95 23.9705Z" fill="#244D5E"/>
<path d="M71.2905 107.759C68.5494 102.825 56.4428 99.4082 50.7321 98.266L45.9248 107.759H71.2905Z" fill="#244D5E"/>
<path d="M30.0713 43.5928L28.7655 47.6811L36.519 50.5786L37.5865 44.6785C38.8341 44.8217 41.6846 43.9555 43.106 39.3451C44.8828 33.5821 42.5414 26.2869 37.6067 25.5532C32.672 24.8195 29.0718 28.9791 28.1712 34.3965C27.4507 38.7304 29.1377 42.3332 30.0713 43.5928Z" fill="white"/>
<path fill-rule="evenodd" clip-rule="evenodd" d="M31.6756 27.9685C30.1219 29.5183 29.0286 31.8248 28.5895 34.466C27.8914 38.6652 29.5329 42.1541 30.412 43.3403L30.5413 43.5148L29.2925 47.4253L36.1919 50.0036L37.2399 44.2118L37.6348 44.2571C38.6382 44.3723 41.3262 43.6781 42.7006 39.2201C43.561 36.4294 43.4236 33.2607 42.4756 30.711C41.5247 28.1537 39.7997 26.308 37.5443 25.9727C35.2238 25.6277 33.2207 26.4273 31.6756 27.9685ZM31.0766 27.3679C32.7905 25.6583 35.0549 24.745 37.669 25.1336C40.3483 25.532 42.2613 27.7008 43.2707 30.4153C44.2828 33.1374 44.4276 36.4978 43.5113 39.47C42.1645 43.8384 39.5184 45.0736 37.9383 45.1161L36.8459 51.1536L28.2385 47.937L29.6027 43.6656C28.6017 42.1998 27.0409 38.6086 27.7527 34.3269C28.2142 31.5508 29.3713 29.0688 31.0766 27.3679Z" fill="#244D5E"/>
<path d="M30.0411 43.3664C30.8373 43.8147 34.1156 43.9827 35.6553 44.0107C36.7877 43.8619 37.348 42.8665 38.0455 41.1621C38.6035 39.7986 37.718 38.6708 37.2055 38.2774C34.071 35.464 37.29 32.7369 38.3028 32.6038C39.3327 32.4684 39.4753 34.4589 39.5005 36.2636C39.5089 36.8608 40.1945 36.9747 40.4244 36.4235C40.9447 35.1755 41.5379 33.8739 42.0253 32.9015C42.4732 32.008 43.307 31.422 44.2105 30.9947C48.9235 28.7653 48.655 24.4641 47.4822 23.5637C46.2009 22.5802 45.5034 24.2847 40.9324 22.8121C36.3613 21.3394 29.7339 21.7499 26.8067 29.2768C23.8794 36.8038 29.0459 42.806 30.0411 43.3664Z" fill="#244D5E"/>
<path d="M87.9663 88.6721C86.7819 83.6032 80.1405 82.6085 76.9679 82.7447L76.5449 88.6721H87.9663Z" fill="white"/>
<path fill-rule="evenodd" clip-rule="evenodd" d="M77.3631 83.1582L76.9999 88.248H87.4058C86.7265 86.2077 85.0299 84.9254 83.0572 84.1513C81.0875 83.3784 78.9014 83.139 77.3631 83.1582ZM83.3671 83.3616C85.6415 84.2541 87.7425 85.8524 88.3788 88.5756L88.5004 89.0963H76.0889L76.5712 82.3372L76.9492 82.321C78.579 82.251 81.0942 82.4697 83.3671 83.3616Z" fill="#244D5E"/>
<path d="M25.6049 46.413C21.7674 49.3369 16.9902 57.325 15.3039 63.1066C11.1108 77.4833 5.51183 105.532 20.2289 107.759C32.7342 107.774 43.141 107.765 46.7812 107.759C48.4824 105.193 51.6313 99.3271 50.6177 95.9818L50.0467 90.9564C56.7309 93.891 68.7604 91.8319 75.657 90.0019C76.975 89.6522 77.8006 88.3749 77.6431 87.0205L77.0483 81.9051C76.8891 80.5359 75.7573 79.4867 74.3839 79.3704C59.4681 78.1082 55.5787 73.1218 52.1025 68.3421C48.4477 63.3167 41.5949 52.3521 38.6253 49.8394C35.6557 47.3267 30.4019 42.7582 25.6049 46.413Z" fill="white"/>
<path fill-rule="evenodd" clip-rule="evenodd" d="M32.6307 46.202C30.4355 45.2415 28.0989 45.0463 25.8623 46.7504C24.0061 48.1646 21.8853 50.8395 20.01 53.9093C18.1391 56.9718 16.5414 60.3796 15.7114 63.2253C13.6184 70.4015 11.1832 80.9636 11.0995 89.9928C11.0577 94.5105 11.6055 98.6009 13.0456 101.685C14.4711 104.737 16.7634 106.795 20.2617 107.335C32.5001 107.349 42.7236 107.341 46.5523 107.335C47.3817 106.058 48.5053 104.073 49.3234 102.007C49.7532 100.921 50.0944 99.8238 50.2672 98.8018C50.4406 97.7758 50.4393 96.8545 50.2121 96.1048L50.201 96.0679L49.5423 90.2716L50.2175 90.568C53.4598 91.9915 58.0503 92.2184 62.7387 91.843C67.412 91.4689 72.1177 90.5023 75.5485 89.5919C76.6525 89.299 77.3565 88.2253 77.2221 87.0695L76.6273 81.9541C76.4925 80.7947 75.5305 79.8931 74.3484 79.7931C66.8487 79.1584 62.0773 77.5841 58.7323 75.5371C55.3843 73.4884 53.5017 70.9867 51.7598 68.5916C50.6269 67.0338 49.1841 64.9019 47.6489 62.6335C46.7034 61.2365 45.7229 59.7877 44.7581 58.3894C43.4887 56.5494 42.2442 54.793 41.1334 53.3416C40.0161 51.8816 39.0554 50.7587 38.3516 50.1632C38.3107 50.1286 38.2695 50.0936 38.2278 50.0584C36.7459 48.8038 34.7872 47.1454 32.6307 46.202ZM38.7493 49.3884C38.8001 49.4314 38.8502 49.4738 38.8996 49.5156C39.6806 50.1765 40.6901 51.3664 41.8071 52.826C42.9306 54.2942 44.1845 56.0642 45.4564 57.9076C46.4328 59.323 47.4185 60.7795 48.3656 62.1789C49.8929 64.4358 51.3199 66.5444 52.4459 68.0926C54.1801 70.4772 55.9803 72.8586 59.1751 74.8135C62.3727 76.7703 67.0039 78.3202 74.42 78.9478C75.9848 79.0802 77.2863 80.2771 77.4699 81.8561L78.0647 86.9715C78.2453 88.5246 77.2981 90.0053 75.7661 90.4118C72.3003 91.3315 67.543 92.3094 62.8064 92.6886C58.3851 93.0426 53.9246 92.8803 50.549 91.6175L51.0353 95.8967C51.3032 96.8108 51.2862 97.8631 51.1036 98.9432C50.9179 100.042 50.5556 101.199 50.1122 102.319C49.2256 104.558 47.9977 106.692 47.135 107.993L47.0094 108.183L46.7822 108.183C43.1416 108.189 32.7344 108.198 20.2287 108.183L20.1971 108.183L20.1658 108.178C16.323 107.597 13.8056 105.317 12.277 102.044C10.7588 98.7927 10.2089 94.5548 10.2513 89.9849C10.3361 80.8389 12.7969 70.1884 14.8971 62.9878C15.7533 60.0519 17.3874 56.575 19.2861 53.467C21.1802 50.3664 23.3668 47.5853 25.3482 46.0756C27.9086 44.1249 30.5974 44.3865 32.9707 45.4248C35.2434 46.4191 37.2845 48.1478 38.7493 49.3884Z" fill="#244D5E"/>
<path d="M32.458 73.5958C36.8438 82.3675 44.3362 88.4436 50.2753 91.1848L50.5038 95.5249C37.7118 87.8497 33.1433 77.7075 32.458 73.5958Z" fill="#244D5E"/>
<path d="M52.5601 91.8701C51.2657 89.0528 46.7124 83.2812 38.8545 82.733C41.2149 85.398 47.2606 90.9564 52.5601 91.8701Z" fill="#244D5E"/>
<path d="M7.56172 93.8383C10.1241 105.906 16.0267 107.763 19.9161 107.763H48.2854C53.3187 107.763 52.6323 106.18 52.6323 104.809C51.0308 97.9523 47.1415 95.2097 35.4735 91.7814C23.8054 88.3531 21.2888 74.64 17.3994 65.7266C13.5101 56.8131 2.98601 56.5845 1.6133 58.4129C0.240591 60.2413 4.35872 78.7539 7.56172 93.8383Z" fill="white"/>
<path fill-rule="evenodd" clip-rule="evenodd" d="M2.66828 58.2364C2.27539 58.3757 2.05184 58.5357 1.95282 58.6676C1.92587 58.7035 1.87646 58.8059 1.83606 59.0237C1.79746 59.2318 1.77384 59.5063 1.76781 59.8488C1.75576 60.5334 1.81439 61.4451 1.93518 62.5523C2.17646 64.7642 2.66022 67.7083 3.28889 71.0768C4.32758 76.6423 5.75648 83.3383 7.12556 89.754C7.41339 91.1029 7.69858 92.4393 7.97693 93.7502C9.24606 99.7271 11.3291 103.112 13.519 105.005C15.7034 106.894 18.0425 107.339 19.9164 107.339H48.2858C49.5267 107.339 50.3866 107.241 50.9801 107.084C51.5725 106.928 51.8643 106.723 52.0166 106.534C52.1659 106.349 52.2252 106.126 52.2375 105.831C52.2437 105.682 52.2376 105.525 52.2287 105.351C52.2275 105.327 52.2262 105.303 52.2249 105.278C52.2179 105.145 52.2103 105.002 52.2088 104.859C51.4245 101.532 50.0978 99.2399 47.5739 97.3489C45.0091 95.4274 41.1853 93.9016 35.3542 92.1884C29.3626 90.4279 25.7427 86.0267 23.1431 81.006C21.8437 78.4963 20.7925 75.8192 19.8263 73.2239C19.6132 72.6515 19.4045 72.0836 19.1982 71.5225C18.4659 69.5308 17.7648 67.6237 17.011 65.8962C15.1273 61.5792 11.6407 59.365 8.44607 58.4493C6.8468 57.9908 5.33176 57.8615 4.14525 57.9538C3.55148 57.9999 3.05105 58.1007 2.66828 58.2364ZM8.67983 57.6338C12.0628 58.6036 15.7828 60.9604 17.7885 65.5569C18.5533 67.3097 19.2661 69.2487 19.9998 71.2445C20.2048 71.8022 20.4115 72.3642 20.6213 72.9279C21.5855 75.5179 22.622 78.1546 23.8964 80.6159C26.4445 85.5371 29.9169 89.7066 35.5933 91.3745C41.4303 93.0895 45.3852 94.6491 48.0825 96.6701C50.809 98.7128 52.2271 101.208 53.0457 104.712L53.0568 104.76V104.809C53.0568 104.943 53.064 105.08 53.0719 105.23C53.0732 105.255 53.0746 105.281 53.0759 105.308C53.0849 105.483 53.0931 105.675 53.085 105.867C53.0688 106.255 52.9851 106.684 52.6768 107.067C52.3715 107.445 51.8911 107.721 51.1966 107.905C50.5032 108.088 49.5615 108.188 48.2858 108.188H19.9164C17.901 108.188 15.3441 107.704 12.9642 105.647C10.5899 103.594 8.44041 100.017 7.14714 93.9264C6.86927 92.6178 6.58442 91.283 6.29681 89.9352C4.92772 83.5194 3.4959 76.8098 2.45499 71.2325C1.82534 67.8587 1.33676 64.8891 1.09188 62.6443C0.969578 61.5231 0.90667 60.5707 0.919642 59.8339C0.926123 59.4659 0.951656 59.1404 1.00198 58.869C1.0505 58.6074 1.12978 58.3509 1.27443 58.1583C1.51858 57.8331 1.92418 57.6002 2.38477 57.4369C2.85548 57.27 3.43283 57.1583 4.07951 57.108C5.37387 57.0074 6.99032 57.1495 8.67983 57.6338Z" fill="#244D5E"/>
</svg>
