<svg width="370" height="214" viewBox="0 0 370 214" fill="none" xmlns="http://www.w3.org/2000/svg">
<path fill-rule="evenodd" clip-rule="evenodd" d="M58.6016 196.213C91.765 154.412 141.709 183.298 181.047 151.872C229.935 112.817 251.454 11.7237 302.819 1.11265C349.992 -8.6325 346.846 75.8474 371.747 112.477C396.608 149.047 446.707 161.774 448.373 215.221C450.075 269.826 426.584 348.863 380.202 383.731C328.942 422.268 284.344 375.316 232.889 377.218C214.839 377.886 196.662 380.812 177.981 391.208C121.343 422.728 62.7887 515.77 14.9764 498.493C-23.7784 484.488 24.8571 393.723 32.7918 338.743C39.7773 290.34 26.2176 237.032 58.6016 196.213Z" fill="#0195DA" fill-opacity="0.5"/>
</svg>
