<svg width="23" height="24" viewBox="0 0 23 24" fill="none" xmlns="http://www.w3.org/2000/svg">
<path d="M8.15757 22.2356V18.6682C8.15757 17.7576 8.90119 17.0194 9.8185 17.0194H13.1717C13.6122 17.0194 14.0347 17.1931 14.3462 17.5023C14.6576 17.8115 14.8326 18.2309 14.8326 18.6682V22.2356C14.8299 22.6142 14.9794 22.9782 15.2481 23.2469C15.5168 23.5156 15.8824 23.6667 16.2638 23.6667H18.5515C19.6199 23.6694 20.6455 23.25 21.402 22.5009C22.1585 21.7519 22.5837 20.7348 22.5837 19.6741V9.51134C22.5837 8.65455 22.2011 7.84183 21.539 7.29212L13.7567 1.12186C12.4029 0.0399988 10.4633 0.0749293 9.14995 1.20482L1.54517 7.29212C0.851856 7.82562 0.43747 8.64075 0.416992 9.51134V19.6638C0.416992 21.8745 2.22227 23.6667 4.44919 23.6667H6.68466C7.47676 23.6667 8.12049 23.0323 8.12623 22.2459L8.15757 22.2356Z" fill="#4080A4"/>
</svg>
