<svg width="24" height="24" viewBox="0 0 24 24" fill="none" xmlns="http://www.w3.org/2000/svg">
<path d="M8.35689 5.35543C8.35701 4.66247 8.55477 3.98391 8.92697 3.39938C9.29918 2.81486 9.83039 2.34863 10.4583 2.0554C11.0861 1.76216 11.7846 1.6541 12.4717 1.74388C13.1589 1.83366 13.8061 2.11757 14.3376 2.56228C14.869 3.00699 15.2626 3.59406 15.4721 4.2546C15.6816 4.91513 15.6984 5.62172 15.5205 6.29145C15.3425 6.96118 14.9772 7.56627 14.4675 8.0357C13.9578 8.50513 13.3247 8.81943 12.6426 8.94172V11.5714H16.4997C17.0112 11.5714 17.5018 11.7746 17.8635 12.1363C18.2251 12.498 18.4283 12.9885 18.4283 13.5V15.0566C19.3245 15.2172 20.1282 15.7076 20.6809 16.4311C21.2337 17.1546 21.4955 18.0589 21.4149 18.9658C21.3342 19.8728 20.917 20.7166 20.2452 21.3313C19.5735 21.946 18.696 22.2868 17.7855 22.2868C16.875 22.2868 15.9974 21.946 15.3257 21.3313C14.654 20.7166 14.2367 19.8728 14.1561 18.9658C14.0754 18.0589 14.3373 17.1546 14.89 16.4311C15.4428 15.7076 16.2464 15.2172 17.1426 15.0566V13.5C17.1426 13.3295 17.0749 13.166 16.9543 13.0454C16.8338 12.9249 16.6702 12.8571 16.4997 12.8571H7.49975C7.32925 12.8571 7.16574 12.9249 7.04518 13.0454C6.92462 13.166 6.85689 13.3295 6.85689 13.5V15.0566C7.75312 15.2172 8.55673 15.7076 9.10948 16.4311C9.66223 17.1546 9.92407 18.0589 9.84343 18.9658C9.76279 19.8728 9.34553 20.7166 8.67379 21.3313C8.00206 21.946 7.12454 22.2868 6.21403 22.2868C5.30352 22.2868 4.42601 21.946 3.75427 21.3313C3.08254 20.7166 2.66527 19.8728 2.58464 18.9658C2.504 18.0589 2.76584 17.1546 3.31859 16.4311C3.87134 15.7076 4.67495 15.2172 5.57118 15.0566V13.5C5.57118 12.9885 5.77437 12.498 6.13604 12.1363C6.49772 11.7746 6.98826 11.5714 7.49975 11.5714H11.3569V8.94172C10.5156 8.79072 9.75421 8.34879 9.20581 7.69322C8.65741 7.03764 8.35692 6.21014 8.35689 5.35543Z" fill="white"/>
</svg>
