<svg width="25" height="25" viewBox="0 0 25 25" fill="none" xmlns="http://www.w3.org/2000/svg">
<path fill-rule="evenodd" clip-rule="evenodd" d="M11.0793 11.0806L9.85777 14.9854L13.7614 13.7627L14.9841 9.85791L11.0793 11.0806ZM8.52311 17.1939C8.29444 17.1939 8.07044 17.1041 7.90361 16.9384C7.67377 16.7074 7.58977 16.3679 7.68777 16.0587L9.54627 10.1216C9.63144 9.84624 9.84611 9.63274 10.1191 9.54757L16.0563 7.68907C16.3678 7.58991 16.7061 7.67507 16.9371 7.90491C17.1669 8.13591 17.2509 8.47541 17.1529 8.78457L15.2956 14.7217C15.2104 14.9959 14.9946 15.2106 14.7216 15.2957L8.78444 17.1542C8.69811 17.1811 8.60944 17.1939 8.52311 17.1939Z" fill="#666969"/>
<mask id="mask0_1823_460" style="mask-type:luminance" maskUnits="userSpaceOnUse" x="0" y="0" width="25" height="25">
<path fill-rule="evenodd" clip-rule="evenodd" d="M0.333008 0.333344H24.5084V24.5087H0.333008V0.333344Z" fill="white"/>
</mask>
<g mask="url(#mask0_1823_460)">
<path fill-rule="evenodd" clip-rule="evenodd" d="M12.4208 2.08334C6.72051 2.08334 2.08301 6.72201 2.08301 12.4212C2.08301 18.1215 6.72051 22.759 12.4208 22.759C18.1212 22.759 22.7587 18.1215 22.7587 12.4212C22.7587 6.72201 18.1212 2.08334 12.4208 2.08334ZM12.4208 24.509C5.75567 24.509 0.333008 19.0863 0.333008 12.4212C0.333008 5.75601 5.75567 0.333344 12.4208 0.333344C19.086 0.333344 24.5087 5.75601 24.5087 12.4212C24.5087 19.0863 19.086 24.509 12.4208 24.509Z" fill="#666969"/>
</g>
</svg>
